<mxfile host="app.diagrams.net" modified="2023-01-12T06:55:36.438Z" agent="5.0 (Windows NT 10.0; Win64; x64) AppleWebKit/537.36 (KHTML, like Gecko) Chrome/108.0.0.0 Safari/537.36" etag="CXgE0_JdKZLvdEAijjV1" version="20.8.3" type="github">
  <diagram id="R2lEEEUBdFMjLlhIrx00" name="Page-1">
    <mxGraphModel dx="1061" dy="614" grid="1" gridSize="10" guides="1" tooltips="1" connect="1" arrows="1" fold="1" page="1" pageScale="1" pageWidth="850" pageHeight="1100" math="0" shadow="0" extFonts="Permanent Marker^https://fonts.googleapis.com/css?family=Permanent+Marker">
      <root>
        <object label="" id="0">
          <mxCell />
        </object>
        <mxCell id="1" parent="0" />
        <mxCell id="zZJDBr4B8ybU85FiS5dK-38" value="" style="group" vertex="1" connectable="0" parent="1">
          <mxGeometry x="50" y="320" width="100" height="60" as="geometry" />
        </mxCell>
        <mxCell id="zZJDBr4B8ybU85FiS5dK-36" value="" style="verticalLabelPosition=bottom;verticalAlign=top;html=1;shape=process;whiteSpace=wrap;rounded=1;size=0.14;arcSize=6;" vertex="1" parent="zZJDBr4B8ybU85FiS5dK-38">
          <mxGeometry width="100" height="60" as="geometry" />
        </mxCell>
        <mxCell id="zZJDBr4B8ybU85FiS5dK-37" value="molder&lt;br&gt;script" style="text;html=1;strokeColor=none;fillColor=none;align=center;verticalAlign=middle;whiteSpace=wrap;rounded=0;" vertex="1" parent="zZJDBr4B8ybU85FiS5dK-38">
          <mxGeometry x="20" y="15" width="60" height="30" as="geometry" />
        </mxCell>
        <mxCell id="zZJDBr4B8ybU85FiS5dK-39" value="" style="group" vertex="1" connectable="0" parent="1">
          <mxGeometry x="40" y="170" width="100" height="60" as="geometry" />
        </mxCell>
        <mxCell id="zZJDBr4B8ybU85FiS5dK-34" value="" style="verticalLabelPosition=bottom;verticalAlign=top;html=1;shape=process;whiteSpace=wrap;rounded=1;size=0.14;arcSize=6;" vertex="1" parent="zZJDBr4B8ybU85FiS5dK-39">
          <mxGeometry y="15" width="100" height="60" as="geometry" />
        </mxCell>
        <mxCell id="zZJDBr4B8ybU85FiS5dK-35" value="ARI" style="text;html=1;strokeColor=none;fillColor=none;align=center;verticalAlign=middle;whiteSpace=wrap;rounded=0;" vertex="1" parent="zZJDBr4B8ybU85FiS5dK-39">
          <mxGeometry x="20" y="30" width="60" height="30" as="geometry" />
        </mxCell>
        <mxCell id="zZJDBr4B8ybU85FiS5dK-40" value="" style="group" vertex="1" connectable="0" parent="1">
          <mxGeometry x="40" y="60" width="100" height="60" as="geometry" />
        </mxCell>
        <mxCell id="zZJDBr4B8ybU85FiS5dK-32" value="" style="verticalLabelPosition=bottom;verticalAlign=top;html=1;shape=process;whiteSpace=wrap;rounded=1;size=0.14;arcSize=6;" vertex="1" parent="zZJDBr4B8ybU85FiS5dK-40">
          <mxGeometry width="100" height="60" as="geometry" />
        </mxCell>
        <mxCell id="zZJDBr4B8ybU85FiS5dK-33" value="transcription" style="text;html=1;strokeColor=none;fillColor=none;align=center;verticalAlign=middle;whiteSpace=wrap;rounded=0;" vertex="1" parent="zZJDBr4B8ybU85FiS5dK-40">
          <mxGeometry x="20" y="15" width="60" height="30" as="geometry" />
        </mxCell>
        <mxCell id="zZJDBr4B8ybU85FiS5dK-45" value="" style="edgeStyle=orthogonalEdgeStyle;rounded=0;orthogonalLoop=1;jettySize=auto;html=1;entryX=1;entryY=0.5;entryDx=0;entryDy=0;" edge="1" parent="1" source="zZJDBr4B8ybU85FiS5dK-34" target="zZJDBr4B8ybU85FiS5dK-32">
          <mxGeometry relative="1" as="geometry">
            <Array as="points">
              <mxPoint x="160" y="200" />
              <mxPoint x="160" y="90" />
            </Array>
          </mxGeometry>
        </mxCell>
        <mxCell id="zZJDBr4B8ybU85FiS5dK-46" value="chunk" style="text;html=1;strokeColor=none;fillColor=none;align=center;verticalAlign=middle;whiteSpace=wrap;rounded=0;" vertex="1" parent="1">
          <mxGeometry x="160" y="130" width="60" height="30" as="geometry" />
        </mxCell>
        <mxCell id="zZJDBr4B8ybU85FiS5dK-48" style="edgeStyle=orthogonalEdgeStyle;rounded=0;orthogonalLoop=1;jettySize=auto;html=1;exitX=0.5;exitY=1;exitDx=0;exitDy=0;entryX=0.5;entryY=0;entryDx=0;entryDy=0;" edge="1" parent="1" source="zZJDBr4B8ybU85FiS5dK-32" target="zZJDBr4B8ybU85FiS5dK-34">
          <mxGeometry relative="1" as="geometry" />
        </mxCell>
        <mxCell id="zZJDBr4B8ybU85FiS5dK-64" value="" style="shape=table;startSize=0;container=1;collapsible=0;childLayout=tableLayout;" vertex="1" parent="1">
          <mxGeometry x="220" y="140" width="1070" height="746" as="geometry" />
        </mxCell>
        <mxCell id="zZJDBr4B8ybU85FiS5dK-65" value="" style="shape=tableRow;horizontal=0;startSize=0;swimlaneHead=0;swimlaneBody=0;top=0;left=0;bottom=0;right=0;collapsible=0;dropTarget=0;fillColor=none;points=[[0,0.5],[1,0.5]];portConstraint=eastwest;" vertex="1" parent="zZJDBr4B8ybU85FiS5dK-64">
          <mxGeometry width="1070" height="76" as="geometry" />
        </mxCell>
        <mxCell id="zZJDBr4B8ybU85FiS5dK-66" value="тип запроса" style="shape=partialRectangle;html=1;whiteSpace=wrap;connectable=0;overflow=hidden;fillColor=none;top=0;left=0;bottom=0;right=0;pointerEvents=1;" vertex="1" parent="zZJDBr4B8ybU85FiS5dK-65">
          <mxGeometry width="189" height="76" as="geometry">
            <mxRectangle width="189" height="76" as="alternateBounds" />
          </mxGeometry>
        </mxCell>
        <mxCell id="zZJDBr4B8ybU85FiS5dK-67" value="тип ответа" style="shape=partialRectangle;html=1;whiteSpace=wrap;connectable=0;overflow=hidden;fillColor=none;top=0;left=0;bottom=0;right=0;pointerEvents=1;" vertex="1" parent="zZJDBr4B8ybU85FiS5dK-65">
          <mxGeometry x="189" width="266" height="76" as="geometry">
            <mxRectangle width="266" height="76" as="alternateBounds" />
          </mxGeometry>
        </mxCell>
        <mxCell id="zZJDBr4B8ybU85FiS5dK-68" value="payload&amp;nbsp;" style="shape=partialRectangle;html=1;whiteSpace=wrap;connectable=0;overflow=hidden;fillColor=none;top=0;left=0;bottom=0;right=0;pointerEvents=1;" vertex="1" parent="zZJDBr4B8ybU85FiS5dK-65">
          <mxGeometry x="455" width="455" height="76" as="geometry">
            <mxRectangle width="455" height="76" as="alternateBounds" />
          </mxGeometry>
        </mxCell>
        <mxCell id="zZJDBr4B8ybU85FiS5dK-69" value="" style="shape=partialRectangle;html=1;whiteSpace=wrap;connectable=0;overflow=hidden;fillColor=none;top=0;left=0;bottom=0;right=0;pointerEvents=1;" vertex="1" parent="zZJDBr4B8ybU85FiS5dK-65">
          <mxGeometry x="910" width="160" height="76" as="geometry">
            <mxRectangle width="160" height="76" as="alternateBounds" />
          </mxGeometry>
        </mxCell>
        <mxCell id="zZJDBr4B8ybU85FiS5dK-70" value="" style="shape=tableRow;horizontal=0;startSize=0;swimlaneHead=0;swimlaneBody=0;top=0;left=0;bottom=0;right=0;collapsible=0;dropTarget=0;fillColor=none;points=[[0,0.5],[1,0.5]];portConstraint=eastwest;" vertex="1" parent="zZJDBr4B8ybU85FiS5dK-64">
          <mxGeometry y="76" width="1070" height="54" as="geometry" />
        </mxCell>
        <mxCell id="zZJDBr4B8ybU85FiS5dK-71" value="new call" style="shape=partialRectangle;html=1;whiteSpace=wrap;connectable=0;overflow=hidden;fillColor=none;top=0;left=0;bottom=0;right=0;pointerEvents=1;align=left;" vertex="1" parent="zZJDBr4B8ybU85FiS5dK-70">
          <mxGeometry width="189" height="54" as="geometry">
            <mxRectangle width="189" height="54" as="alternateBounds" />
          </mxGeometry>
        </mxCell>
        <mxCell id="zZJDBr4B8ybU85FiS5dK-72" value="answer" style="shape=partialRectangle;html=1;whiteSpace=wrap;connectable=0;overflow=hidden;fillColor=none;top=0;left=0;bottom=0;right=0;pointerEvents=1;align=left;" vertex="1" parent="zZJDBr4B8ybU85FiS5dK-70">
          <mxGeometry x="189" width="266" height="54" as="geometry">
            <mxRectangle width="266" height="54" as="alternateBounds" />
          </mxGeometry>
        </mxCell>
        <mxCell id="zZJDBr4B8ybU85FiS5dK-73" value="&lt;font style=&quot;font-size: 9px;&quot;&gt;&lt;br&gt;&lt;/font&gt;&lt;div style=&quot;border-color: var(--border-color); color: rgb(51, 51, 51); font-family: Consolas, &amp;quot;Courier New&amp;quot;, monospace; font-style: normal; font-variant-ligatures: normal; font-variant-caps: normal; font-weight: 400; letter-spacing: normal; orphans: 2; text-indent: 0px; text-transform: none; widows: 2; word-spacing: 0px; -webkit-text-stroke-width: 0px; text-decoration-thickness: initial; text-decoration-style: initial; text-decoration-color: initial; line-height: 6.6px; font-size: 9px;&quot;&gt;&lt;span style=&quot;border-color: var(--border-color); color: rgb(119, 119, 119);&quot;&gt;&lt;font style=&quot;font-size: 9px;&quot;&gt;{&lt;/font&gt;&lt;/span&gt;&lt;/div&gt;&lt;div style=&quot;border-color: var(--border-color); color: rgb(51, 51, 51); font-family: Consolas, &amp;quot;Courier New&amp;quot;, monospace; font-style: normal; font-variant-ligatures: normal; font-variant-caps: normal; font-weight: 400; letter-spacing: normal; orphans: 2; text-indent: 0px; text-transform: none; widows: 2; word-spacing: 0px; -webkit-text-stroke-width: 0px; text-decoration-thickness: initial; text-decoration-style: initial; text-decoration-color: initial; line-height: 6.6px; font-size: 9px;&quot;&gt;&lt;font style=&quot;font-size: 9px;&quot;&gt;&amp;nbsp; &amp;nbsp;&lt;span&gt;&amp;nbsp;&lt;/span&gt;&lt;span style=&quot;border-color: var(--border-color); color: rgb(119, 119, 119);&quot;&gt;&quot;&lt;/span&gt;&lt;span style=&quot;border-color: var(--border-color); color: rgb(156, 93, 39);&quot;&gt;Таймаут перед началом разговора&lt;/span&gt;&lt;span style=&quot;border-color: var(--border-color); color: rgb(119, 119, 119);&quot;&gt;&quot;&lt;/span&gt;&lt;span style=&quot;border-color: var(--border-color); color: rgb(119, 119, 119);&quot;&gt;:&lt;/span&gt;&lt;span&gt;&amp;nbsp;&lt;/span&gt;&lt;span style=&quot;border-color: var(--border-color); color: rgb(102, 0, 0);&quot;&gt;number&lt;/span&gt;&lt;span style=&quot;border-color: var(--border-color); color: rgb(119, 119, 119);&quot;&gt;,&lt;/span&gt;&lt;/font&gt;&lt;/div&gt;&lt;div style=&quot;border-color: var(--border-color); color: rgb(51, 51, 51); font-family: Consolas, &amp;quot;Courier New&amp;quot;, monospace; font-style: normal; font-variant-ligatures: normal; font-variant-caps: normal; font-weight: 400; letter-spacing: normal; orphans: 2; text-indent: 0px; text-transform: none; widows: 2; word-spacing: 0px; -webkit-text-stroke-width: 0px; text-decoration-thickness: initial; text-decoration-style: initial; text-decoration-color: initial; line-height: 6.6px; font-size: 9px;&quot;&gt;&lt;font style=&quot;font-size: 9px;&quot;&gt;&amp;nbsp; &amp;nbsp;&lt;span&gt;&amp;nbsp;&lt;/span&gt;&lt;span style=&quot;border-color: var(--border-color); color: rgb(119, 119, 119);&quot;&gt;&quot;&lt;/span&gt;&lt;span style=&quot;border-color: var(--border-color); color: rgb(156, 93, 39);&quot;&gt;Фоновый шум&lt;/span&gt;&lt;span style=&quot;border-color: var(--border-color); color: rgb(119, 119, 119);&quot;&gt;&quot;&lt;/span&gt;&lt;span style=&quot;border-color: var(--border-color); color: rgb(119, 119, 119);&quot;&gt;:&lt;/span&gt;&lt;span&gt;&amp;nbsp;&lt;/span&gt;&lt;span style=&quot;border-color: var(--border-color); color: rgb(102, 0, 0);&quot;&gt;string&lt;/span&gt;&lt;/font&gt;&lt;/div&gt;&lt;div style=&quot;border-color: var(--border-color); color: rgb(51, 51, 51); font-family: Consolas, &amp;quot;Courier New&amp;quot;, monospace; font-style: normal; font-variant-ligatures: normal; font-variant-caps: normal; font-weight: 400; letter-spacing: normal; orphans: 2; text-indent: 0px; text-transform: none; widows: 2; word-spacing: 0px; -webkit-text-stroke-width: 0px; text-decoration-thickness: initial; text-decoration-style: initial; text-decoration-color: initial; line-height: 6.6px; font-size: 9px;&quot;&gt;&lt;span style=&quot;border-color: var(--border-color); color: rgb(119, 119, 119);&quot;&gt;&lt;font style=&quot;font-size: 9px;&quot;&gt;}&lt;/font&gt;&lt;/span&gt;&lt;/div&gt;&lt;br&gt;" style="shape=partialRectangle;html=1;whiteSpace=wrap;connectable=0;overflow=hidden;fillColor=none;top=0;left=0;bottom=0;right=0;pointerEvents=1;align=left;" vertex="1" parent="zZJDBr4B8ybU85FiS5dK-70">
          <mxGeometry x="455" width="455" height="54" as="geometry">
            <mxRectangle width="455" height="54" as="alternateBounds" />
          </mxGeometry>
        </mxCell>
        <mxCell id="zZJDBr4B8ybU85FiS5dK-74" value="" style="shape=partialRectangle;html=1;whiteSpace=wrap;connectable=0;overflow=hidden;fillColor=none;top=0;left=0;bottom=0;right=0;pointerEvents=1;" vertex="1" parent="zZJDBr4B8ybU85FiS5dK-70">
          <mxGeometry x="910" width="160" height="54" as="geometry">
            <mxRectangle width="160" height="54" as="alternateBounds" />
          </mxGeometry>
        </mxCell>
        <mxCell id="zZJDBr4B8ybU85FiS5dK-75" value="" style="shape=tableRow;horizontal=0;startSize=0;swimlaneHead=0;swimlaneBody=0;top=0;left=0;bottom=0;right=0;collapsible=0;dropTarget=0;fillColor=none;points=[[0,0.5],[1,0.5]];portConstraint=eastwest;" vertex="1" parent="zZJDBr4B8ybU85FiS5dK-64">
          <mxGeometry y="130" width="1070" height="240" as="geometry" />
        </mxCell>
        <mxCell id="zZJDBr4B8ybU85FiS5dK-76" value="active call" style="shape=partialRectangle;html=1;whiteSpace=wrap;connectable=0;overflow=hidden;fillColor=none;top=0;left=0;bottom=0;right=0;pointerEvents=1;align=left;" vertex="1" parent="zZJDBr4B8ybU85FiS5dK-75">
          <mxGeometry width="189" height="240" as="geometry">
            <mxRectangle width="189" height="240" as="alternateBounds" />
          </mxGeometry>
        </mxCell>
        <mxCell id="zZJDBr4B8ybU85FiS5dK-77" value="play answer" style="shape=partialRectangle;html=1;whiteSpace=wrap;connectable=0;overflow=hidden;fillColor=none;top=0;left=0;bottom=0;right=0;pointerEvents=1;align=left;" vertex="1" parent="zZJDBr4B8ybU85FiS5dK-75">
          <mxGeometry x="189" width="266" height="240" as="geometry">
            <mxRectangle width="266" height="240" as="alternateBounds" />
          </mxGeometry>
        </mxCell>
        <mxCell id="zZJDBr4B8ybU85FiS5dK-78" value="&lt;br&gt;&lt;div style=&quot;border-color: var(--border-color); color: rgb(51, 51, 51); font-family: Consolas, &amp;quot;Courier New&amp;quot;, monospace; font-size: 11px; font-style: normal; font-variant-ligatures: normal; font-variant-caps: normal; font-weight: 400; letter-spacing: normal; orphans: 2; text-indent: 0px; text-transform: none; widows: 2; word-spacing: 0px; -webkit-text-stroke-width: 0px; text-decoration-thickness: initial; text-decoration-style: initial; text-decoration-color: initial; line-height: 11.33px;&quot;&gt;&lt;span style=&quot;border-color: var(--border-color); color: rgb(119, 119, 119);&quot;&gt;{&lt;/span&gt;&lt;/div&gt;&lt;div style=&quot;border-color: var(--border-color); color: rgb(51, 51, 51); font-family: Consolas, &amp;quot;Courier New&amp;quot;, monospace; font-size: 11px; font-style: normal; font-variant-ligatures: normal; font-variant-caps: normal; font-weight: 400; letter-spacing: normal; orphans: 2; text-indent: 0px; text-transform: none; widows: 2; word-spacing: 0px; -webkit-text-stroke-width: 0px; text-decoration-thickness: initial; text-decoration-style: initial; text-decoration-color: initial; line-height: 11.33px;&quot;&gt;&amp;nbsp; &amp;nbsp;&lt;span&gt;&amp;nbsp;&lt;/span&gt;&lt;span style=&quot;border-color: var(--border-color); color: rgb(102, 0, 0);&quot;&gt;Прослушивать&lt;/span&gt;&lt;span&gt;&amp;nbsp;&lt;/span&gt;&lt;span style=&quot;border-color: var(--border-color); color: rgb(102, 0, 0);&quot;&gt;ответ&lt;/span&gt;&lt;span style=&quot;border-color: var(--border-color); color: rgb(119, 119, 119);&quot;&gt;:&lt;/span&gt;&lt;span&gt;&amp;nbsp;&lt;/span&gt;&lt;span style=&quot;border-color: var(--border-color); color: rgb(102, 0, 0);&quot;&gt;boolean&lt;/span&gt;&lt;span style=&quot;border-color: var(--border-color); color: rgb(119, 119, 119);&quot;&gt;,&lt;/span&gt;&lt;/div&gt;&lt;div style=&quot;border-color: var(--border-color); color: rgb(51, 51, 51); font-family: Consolas, &amp;quot;Courier New&amp;quot;, monospace; font-size: 11px; font-style: normal; font-variant-ligatures: normal; font-variant-caps: normal; font-weight: 400; letter-spacing: normal; orphans: 2; text-indent: 0px; text-transform: none; widows: 2; word-spacing: 0px; -webkit-text-stroke-width: 0px; text-decoration-thickness: initial; text-decoration-style: initial; text-decoration-color: initial; line-height: 11.33px;&quot;&gt;&amp;nbsp; &amp;nbsp;&lt;span&gt;&amp;nbsp;&lt;/span&gt;&lt;span style=&quot;border-color: var(--border-color); color: rgb(102, 0, 0);&quot;&gt;Возможность&lt;/span&gt;&lt;span&gt;&amp;nbsp;&lt;/span&gt;&lt;span style=&quot;border-color: var(--border-color); color: rgb(102, 0, 0);&quot;&gt;перебивания&lt;/span&gt;&lt;span style=&quot;border-color: var(--border-color); color: rgb(119, 119, 119);&quot;&gt;:&lt;/span&gt;&lt;span&gt;&amp;nbsp;&lt;/span&gt;&lt;span style=&quot;border-color: var(--border-color); color: rgb(102, 0, 0);&quot;&gt;boolean&lt;/span&gt;&lt;/div&gt;&lt;div style=&quot;border-color: var(--border-color); color: rgb(51, 51, 51); font-family: Consolas, &amp;quot;Courier New&amp;quot;, monospace; font-size: 11px; font-style: normal; font-variant-ligatures: normal; font-variant-caps: normal; font-weight: 400; letter-spacing: normal; orphans: 2; text-indent: 0px; text-transform: none; widows: 2; word-spacing: 0px; -webkit-text-stroke-width: 0px; text-decoration-thickness: initial; text-decoration-style: initial; text-decoration-color: initial; line-height: 11.33px;&quot;&gt;&amp;nbsp; &amp;nbsp;&lt;span&gt;&amp;nbsp;&lt;/span&gt;&lt;span style=&quot;border-color: var(--border-color); color: rgb(102, 0, 0);&quot;&gt;Возможность&lt;/span&gt;&lt;span&gt;&amp;nbsp;&lt;/span&gt;&lt;span style=&quot;border-color: var(--border-color); color: rgb(102, 0, 0);&quot;&gt;активации&lt;/span&gt;&lt;span&gt;&amp;nbsp;&lt;/span&gt;&lt;span style=&quot;border-color: var(--border-color); color: rgb(102, 0, 0);&quot;&gt;режима&lt;/span&gt;&lt;span&gt;&amp;nbsp;&lt;/span&gt;&lt;span style=&quot;border-color: var(--border-color); color: rgb(102, 0, 0);&quot;&gt;ожидания:&lt;/span&gt;&lt;span&gt;&amp;nbsp;&lt;/span&gt;&lt;span style=&quot;border-color: var(--border-color); color: rgb(102, 0, 0);&quot;&gt;boolean&lt;/span&gt;&lt;span style=&quot;border-color: var(--border-color); color: rgb(119, 119, 119);&quot;&gt;,&lt;/span&gt;&lt;/div&gt;&lt;div style=&quot;border-color: var(--border-color); color: rgb(51, 51, 51); font-family: Consolas, &amp;quot;Courier New&amp;quot;, monospace; font-size: 11px; font-style: normal; font-variant-ligatures: normal; font-variant-caps: normal; font-weight: 400; letter-spacing: normal; orphans: 2; text-indent: 0px; text-transform: none; widows: 2; word-spacing: 0px; -webkit-text-stroke-width: 0px; text-decoration-thickness: initial; text-decoration-style: initial; text-decoration-color: initial; line-height: 11.33px;&quot;&gt;&amp;nbsp; &amp;nbsp;&lt;span&gt;&amp;nbsp;&lt;/span&gt;&lt;span style=&quot;border-color: var(--border-color); color: rgb(102, 0, 0);&quot;&gt;Возможность&lt;/span&gt;&lt;span&gt;&amp;nbsp;&lt;/span&gt;&lt;span style=&quot;border-color: var(--border-color); color: rgb(102, 0, 0);&quot;&gt;повтора&lt;/span&gt;&lt;span style=&quot;border-color: var(--border-color); color: rgb(119, 119, 119);&quot;&gt;:&lt;/span&gt;&lt;span&gt;&amp;nbsp;&lt;/span&gt;&lt;span style=&quot;border-color: var(--border-color); color: rgb(102, 0, 0);&quot;&gt;boolean&lt;/span&gt;&lt;/div&gt;&lt;div style=&quot;border-color: var(--border-color); color: rgb(51, 51, 51); font-family: Consolas, &amp;quot;Courier New&amp;quot;, monospace; font-size: 11px; font-style: normal; font-variant-ligatures: normal; font-variant-caps: normal; font-weight: 400; letter-spacing: normal; orphans: 2; text-indent: 0px; text-transform: none; widows: 2; word-spacing: 0px; -webkit-text-stroke-width: 0px; text-decoration-thickness: initial; text-decoration-style: initial; text-decoration-color: initial; line-height: 11.33px;&quot;&gt;&amp;nbsp; &amp;nbsp;&lt;span&gt;&amp;nbsp;&lt;/span&gt;&lt;span style=&quot;border-color: var(--border-color); color: rgb(102, 0, 0);&quot;&gt;Возможность&lt;/span&gt;&lt;span&gt;&amp;nbsp;&lt;/span&gt;&lt;span style=&quot;border-color: var(--border-color); color: rgb(102, 0, 0);&quot;&gt;перевода&lt;/span&gt;&lt;span&gt;&amp;nbsp;&lt;/span&gt;&lt;span style=&quot;border-color: var(--border-color); color: rgb(102, 0, 0);&quot;&gt;на&lt;/span&gt;&lt;span&gt;&amp;nbsp;&lt;/span&gt;&lt;span style=&quot;border-color: var(--border-color); color: rgb(102, 0, 0);&quot;&gt;оператора&lt;/span&gt;&lt;span style=&quot;border-color: var(--border-color); color: rgb(102, 0, 0);&quot;&gt;: boolean&lt;/span&gt;&lt;/div&gt;&lt;div style=&quot;border-color: var(--border-color); color: rgb(51, 51, 51); font-family: Consolas, &amp;quot;Courier New&amp;quot;, monospace; font-size: 11px; font-style: normal; font-variant-ligatures: normal; font-variant-caps: normal; font-weight: 400; letter-spacing: normal; orphans: 2; text-indent: 0px; text-transform: none; widows: 2; word-spacing: 0px; -webkit-text-stroke-width: 0px; text-decoration-thickness: initial; text-decoration-style: initial; text-decoration-color: initial; line-height: 11.33px;&quot;&gt;&amp;nbsp; &amp;nbsp;&lt;/div&gt;&lt;div style=&quot;border-color: var(--border-color); color: rgb(51, 51, 51); font-family: Consolas, &amp;quot;Courier New&amp;quot;, monospace; font-size: 11px; font-style: normal; font-variant-ligatures: normal; font-variant-caps: normal; font-weight: 400; letter-spacing: normal; orphans: 2; text-indent: 0px; text-transform: none; widows: 2; word-spacing: 0px; -webkit-text-stroke-width: 0px; text-decoration-thickness: initial; text-decoration-style: initial; text-decoration-color: initial; line-height: 11.33px;&quot;&gt;&amp;nbsp; &amp;nbsp;&lt;span&gt;&amp;nbsp;&lt;/span&gt;&lt;span style=&quot;border-color: var(--border-color); color: rgb(102, 0, 0);&quot;&gt;Таймаут&lt;/span&gt;&lt;span&gt;&amp;nbsp;&lt;/span&gt;&lt;span style=&quot;border-color: var(--border-color); color: rgb(102, 0, 0);&quot;&gt;после&lt;/span&gt;&lt;span&gt;&amp;nbsp;&lt;/span&gt;&lt;span style=&quot;border-color: var(--border-color); color: rgb(102, 0, 0);&quot;&gt;фразы&lt;/span&gt;&lt;span&gt;&amp;nbsp;&lt;/span&gt;&lt;span style=&quot;border-color: var(--border-color); color: rgb(102, 0, 0);&quot;&gt;робота:&lt;/span&gt;&lt;span&gt;&amp;nbsp;&lt;/span&gt;&lt;span style=&quot;border-color: var(--border-color); color: rgb(102, 0, 0);&quot;&gt;number&lt;/span&gt;&lt;span style=&quot;border-color: var(--border-color); color: rgb(119, 119, 119);&quot;&gt;,&lt;/span&gt;&lt;/div&gt;&lt;div style=&quot;border-color: var(--border-color); color: rgb(51, 51, 51); font-family: Consolas, &amp;quot;Courier New&amp;quot;, monospace; font-size: 11px; font-style: normal; font-variant-ligatures: normal; font-variant-caps: normal; font-weight: 400; letter-spacing: normal; orphans: 2; text-indent: 0px; text-transform: none; widows: 2; word-spacing: 0px; -webkit-text-stroke-width: 0px; text-decoration-thickness: initial; text-decoration-style: initial; text-decoration-color: initial; line-height: 11.33px;&quot;&gt;&amp;nbsp; &amp;nbsp;&lt;span&gt;&amp;nbsp;&lt;/span&gt;&lt;span style=&quot;border-color: var(--border-color); color: rgb(102, 0, 0);&quot;&gt;Максимальная&lt;/span&gt;&lt;span&gt;&amp;nbsp;&lt;/span&gt;&lt;span style=&quot;border-color: var(--border-color); color: rgb(102, 0, 0);&quot;&gt;тишина&lt;/span&gt;&lt;span&gt;&amp;nbsp;&lt;/span&gt;&lt;span style=&quot;border-color: var(--border-color); color: rgb(102, 0, 0);&quot;&gt;молчания&lt;/span&gt;&lt;span style=&quot;border-color: var(--border-color); color: rgb(119, 119, 119);&quot;&gt;:&lt;/span&gt;&lt;span&gt;&amp;nbsp;&lt;/span&gt;&lt;span style=&quot;border-color: var(--border-color); color: rgb(102, 0, 0);&quot;&gt;number&lt;/span&gt;&lt;span style=&quot;border-color: var(--border-color); color: rgb(119, 119, 119);&quot;&gt;,&lt;/span&gt;&lt;/div&gt;&lt;div style=&quot;border-color: var(--border-color); color: rgb(51, 51, 51); font-family: Consolas, &amp;quot;Courier New&amp;quot;, monospace; font-size: 11px; font-style: normal; font-variant-ligatures: normal; font-variant-caps: normal; font-weight: 400; letter-spacing: normal; orphans: 2; text-indent: 0px; text-transform: none; widows: 2; word-spacing: 0px; -webkit-text-stroke-width: 0px; text-decoration-thickness: initial; text-decoration-style: initial; text-decoration-color: initial; line-height: 11.33px;&quot;&gt;&amp;nbsp; &amp;nbsp;&lt;span&gt;&amp;nbsp;&lt;/span&gt;&lt;span style=&quot;border-color: var(--border-color); color: rgb(102, 0, 0);&quot;&gt;Максимальная&lt;/span&gt;&lt;span&gt;&amp;nbsp;&lt;/span&gt;&lt;span style=&quot;border-color: var(--border-color); color: rgb(102, 0, 0);&quot;&gt;тишина&lt;/span&gt;&lt;span&gt;&amp;nbsp;&lt;/span&gt;&lt;span style=&quot;border-color: var(--border-color); color: rgb(102, 0, 0);&quot;&gt;молчания&lt;/span&gt;&lt;span&gt;&amp;nbsp;&lt;/span&gt;&lt;span style=&quot;border-color: var(--border-color); color: rgb(102, 0, 0);&quot;&gt;в&lt;/span&gt;&lt;span&gt;&amp;nbsp;&lt;/span&gt;&lt;span style=&quot;border-color: var(--border-color); color: rgb(102, 0, 0);&quot;&gt;режиме&lt;/span&gt;&lt;span&gt;&amp;nbsp;&lt;/span&gt;&lt;span style=&quot;border-color: var(--border-color); color: rgb(102, 0, 0);&quot;&gt;ожидания&lt;/span&gt;&lt;span style=&quot;border-color: var(--border-color); color: rgb(119, 119, 119);&quot;&gt;:&lt;/span&gt;&lt;span&gt;&amp;nbsp;&lt;/span&gt;&lt;span style=&quot;border-color: var(--border-color); color: rgb(102, 0, 0);&quot;&gt;number&lt;/span&gt;&lt;span style=&quot;border-color: var(--border-color); color: rgb(119, 119, 119);&quot;&gt;,&lt;/span&gt;&lt;/div&gt;&lt;div style=&quot;border-color: var(--border-color); font-family: Consolas, &amp;quot;Courier New&amp;quot;, monospace; font-size: 11px; font-style: normal; font-variant-ligatures: normal; font-variant-caps: normal; font-weight: 400; letter-spacing: normal; orphans: 2; text-indent: 0px; text-transform: none; widows: 2; word-spacing: 0px; -webkit-text-stroke-width: 0px; text-decoration-thickness: initial; text-decoration-style: initial; text-decoration-color: initial; line-height: 11.33px;&quot;&gt;&lt;font color=&quot;#333333&quot;&gt;&amp;nbsp; &amp;nbsp;&lt;/font&gt;&lt;span style=&quot;color: rgb(51, 51, 51);&quot;&gt;&amp;nbsp;&lt;/span&gt;&lt;span style=&quot;color: rgb(102, 0, 0); border-color: var(--border-color);&quot;&gt;Интервал&lt;/span&gt;&lt;span style=&quot;color: rgb(51, 51, 51);&quot;&gt;&amp;nbsp;&lt;/span&gt;&lt;span style=&quot;color: rgb(102, 0, 0); border-color: var(--border-color);&quot;&gt;активного&lt;/span&gt;&lt;span style=&quot;color: rgb(51, 51, 51);&quot;&gt;&amp;nbsp;&lt;/span&gt;&lt;span style=&quot;color: rgb(102, 0, 0); border-color: var(--border-color);&quot;&gt;слушания&lt;/span&gt;&lt;span style=&quot;color: rgb(119, 119, 119); border-color: var(--border-color);&quot;&gt;:&lt;/span&gt;&lt;span style=&quot;border-color: var(--border-color);&quot;&gt;&lt;font color=&quot;#333333&quot;&gt;&amp;nbsp;&lt;/font&gt;&lt;/span&gt;&lt;span style=&quot;color: rgb(102, 0, 0); border-color: var(--border-color);&quot;&gt;number&lt;/span&gt;&lt;span style=&quot;color: rgb(119, 119, 119); border-color: var(--border-color);&quot;&gt;,&lt;/span&gt;&lt;/div&gt;&lt;br style=&quot;border-color: var(--border-color); color: rgb(51, 51, 51); font-family: Consolas, &amp;quot;Courier New&amp;quot;, monospace; font-size: 11px; font-style: normal; font-variant-ligatures: normal; font-variant-caps: normal; font-weight: 400; letter-spacing: normal; orphans: 2; text-indent: 0px; text-transform: none; widows: 2; word-spacing: 0px; -webkit-text-stroke-width: 0px; text-decoration-thickness: initial; text-decoration-style: initial; text-decoration-color: initial;&quot;&gt;&lt;div style=&quot;border-color: var(--border-color); color: rgb(51, 51, 51); font-family: Consolas, &amp;quot;Courier New&amp;quot;, monospace; font-size: 11px; font-style: normal; font-variant-ligatures: normal; font-variant-caps: normal; font-weight: 400; letter-spacing: normal; orphans: 2; text-indent: 0px; text-transform: none; widows: 2; word-spacing: 0px; -webkit-text-stroke-width: 0px; text-decoration-thickness: initial; text-decoration-style: initial; text-decoration-color: initial; line-height: 11.33px;&quot;&gt;&amp;nbsp; &amp;nbsp;&lt;span&gt;&amp;nbsp;&lt;/span&gt;&lt;span style=&quot;border-color: var(--border-color); color: rgb(102, 0, 0);&quot;&gt;Аудио&lt;/span&gt;&lt;span&gt;&amp;nbsp;&lt;/span&gt;&lt;span style=&quot;border-color: var(--border-color); color: rgb(102, 0, 0);&quot;&gt;активного&lt;/span&gt;&lt;span&gt;&amp;nbsp;&lt;/span&gt;&lt;span style=&quot;border-color: var(--border-color); color: rgb(102, 0, 0);&quot;&gt;слушания&lt;/span&gt;&lt;span style=&quot;border-color: var(--border-color); color: rgb(119, 119, 119);&quot;&gt;:&lt;/span&gt;&lt;span&gt;&amp;nbsp;&lt;/span&gt;&lt;span style=&quot;border-color: var(--border-color); color: rgb(102, 0, 0);&quot;&gt;string&lt;/span&gt;&lt;span style=&quot;border-color: var(--border-color); color: rgb(119, 119, 119);&quot;&gt;,&lt;/span&gt;&lt;/div&gt;&lt;div style=&quot;border-color: var(--border-color); color: rgb(51, 51, 51); font-family: Consolas, &amp;quot;Courier New&amp;quot;, monospace; font-size: 11px; font-style: normal; font-variant-ligatures: normal; font-variant-caps: normal; font-weight: 400; letter-spacing: normal; orphans: 2; text-indent: 0px; text-transform: none; widows: 2; word-spacing: 0px; -webkit-text-stroke-width: 0px; text-decoration-thickness: initial; text-decoration-style: initial; text-decoration-color: initial; line-height: 11.33px;&quot;&gt;&amp;nbsp; &amp;nbsp;&lt;span&gt;&amp;nbsp;&lt;/span&gt;&lt;span style=&quot;border-color: var(--border-color); color: rgb(102, 0, 0);&quot;&gt;Аудио&lt;/span&gt;&lt;span&gt;&amp;nbsp;&lt;/span&gt;&lt;span style=&quot;border-color: var(--border-color); color: rgb(102, 0, 0);&quot;&gt;на&lt;/span&gt;&lt;span&gt;&amp;nbsp;&lt;/span&gt;&lt;span style=&quot;border-color: var(--border-color); color: rgb(102, 0, 0);&quot;&gt;Вас&lt;/span&gt;&lt;span&gt;&amp;nbsp;&lt;/span&gt;&lt;span style=&quot;border-color: var(--border-color); color: rgb(102, 0, 0);&quot;&gt;неслышно&lt;/span&gt;&lt;span style=&quot;border-color: var(--border-color); color: rgb(119, 119, 119);&quot;&gt;:&lt;/span&gt;&lt;span&gt;&amp;nbsp;&lt;/span&gt;&lt;span style=&quot;border-color: var(--border-color); color: rgb(102, 0, 0);&quot;&gt;string&lt;/span&gt;&lt;span style=&quot;border-color: var(--border-color); color: rgb(119, 119, 119);&quot;&gt;,&lt;/span&gt;&lt;/div&gt;&lt;div style=&quot;border-color: var(--border-color); color: rgb(51, 51, 51); font-family: Consolas, &amp;quot;Courier New&amp;quot;, monospace; font-size: 11px; font-style: normal; font-variant-ligatures: normal; font-variant-caps: normal; font-weight: 400; letter-spacing: normal; orphans: 2; text-indent: 0px; text-transform: none; widows: 2; word-spacing: 0px; -webkit-text-stroke-width: 0px; text-decoration-thickness: initial; text-decoration-style: initial; text-decoration-color: initial; line-height: 11.33px;&quot;&gt;&amp;nbsp; &amp;nbsp;&lt;span&gt;&amp;nbsp;&lt;/span&gt;&lt;span style=&quot;border-color: var(--border-color); color: rgb(102, 0, 0);&quot;&gt;Аудио&lt;/span&gt;&lt;span&gt;&amp;nbsp;&lt;/span&gt;&lt;span style=&quot;border-color: var(--border-color); color: rgb(102, 0, 0);&quot;&gt;на&lt;/span&gt;&lt;span&gt;&amp;nbsp;&lt;/span&gt;&lt;span style=&quot;border-color: var(--border-color); color: rgb(102, 0, 0);&quot;&gt;подтверждение&lt;/span&gt;&lt;span&gt;&amp;nbsp;&lt;/span&gt;&lt;span style=&quot;border-color: var(--border-color); color: rgb(102, 0, 0);&quot;&gt;ожидания&lt;/span&gt;&lt;span style=&quot;border-color: var(--border-color); color: rgb(119, 119, 119);&quot;&gt;:&lt;/span&gt;&lt;span&gt;&amp;nbsp;&lt;/span&gt;&lt;span style=&quot;border-color: var(--border-color); color: rgb(102, 0, 0);&quot;&gt;string&lt;/span&gt;&lt;span style=&quot;border-color: var(--border-color); color: rgb(119, 119, 119);&quot;&gt;,&lt;/span&gt;&lt;/div&gt;&lt;div style=&quot;border-color: var(--border-color); color: rgb(51, 51, 51); font-family: Consolas, &amp;quot;Courier New&amp;quot;, monospace; font-size: 11px; font-style: normal; font-variant-ligatures: normal; font-variant-caps: normal; font-weight: 400; letter-spacing: normal; orphans: 2; text-indent: 0px; text-transform: none; widows: 2; word-spacing: 0px; -webkit-text-stroke-width: 0px; text-decoration-thickness: initial; text-decoration-style: initial; text-decoration-color: initial; line-height: 11.33px;&quot;&gt;&amp;nbsp; &amp;nbsp;&lt;span&gt;&amp;nbsp;&lt;/span&gt;&lt;span style=&quot;border-color: var(--border-color); color: rgb(102, 0, 0);&quot;&gt;Аудио&lt;/span&gt;&lt;span&gt;&amp;nbsp;&lt;/span&gt;&lt;span style=&quot;border-color: var(--border-color); color: rgb(102, 0, 0);&quot;&gt;на&lt;/span&gt;&lt;span&gt;&amp;nbsp;&lt;/span&gt;&lt;span style=&quot;border-color: var(--border-color); color: rgb(102, 0, 0);&quot;&gt;перебивание&lt;/span&gt;&lt;span style=&quot;border-color: var(--border-color); color: rgb(119, 119, 119);&quot;&gt;:&lt;/span&gt;&lt;span&gt;&amp;nbsp;&lt;/span&gt;&lt;span style=&quot;border-color: var(--border-color); color: rgb(102, 0, 0);&quot;&gt;string&lt;/span&gt;&lt;span style=&quot;border-color: var(--border-color); color: rgb(119, 119, 119);&quot;&gt;,&lt;/span&gt;&lt;/div&gt;&lt;div style=&quot;border-color: var(--border-color); color: rgb(51, 51, 51); font-family: Consolas, &amp;quot;Courier New&amp;quot;, monospace; font-size: 11px; font-style: normal; font-variant-ligatures: normal; font-variant-caps: normal; font-weight: 400; letter-spacing: normal; orphans: 2; text-indent: 0px; text-transform: none; widows: 2; word-spacing: 0px; -webkit-text-stroke-width: 0px; text-decoration-thickness: initial; text-decoration-style: initial; text-decoration-color: initial; line-height: 11.33px;&quot;&gt;&lt;span style=&quot;border-color: var(--border-color); color: rgb(119, 119, 119);&quot;&gt;}&lt;/span&gt;&lt;/div&gt;" style="shape=partialRectangle;html=1;whiteSpace=wrap;connectable=0;overflow=hidden;fillColor=none;top=0;left=0;bottom=0;right=0;pointerEvents=1;align=left;" vertex="1" parent="zZJDBr4B8ybU85FiS5dK-75">
          <mxGeometry x="455" width="455" height="240" as="geometry">
            <mxRectangle width="455" height="240" as="alternateBounds" />
          </mxGeometry>
        </mxCell>
        <mxCell id="zZJDBr4B8ybU85FiS5dK-79" value="" style="shape=partialRectangle;html=1;whiteSpace=wrap;connectable=0;overflow=hidden;fillColor=none;top=0;left=0;bottom=0;right=0;pointerEvents=1;" vertex="1" parent="zZJDBr4B8ybU85FiS5dK-75">
          <mxGeometry x="910" width="160" height="240" as="geometry">
            <mxRectangle width="160" height="240" as="alternateBounds" />
          </mxGeometry>
        </mxCell>
        <mxCell id="zZJDBr4B8ybU85FiS5dK-80" value="" style="shape=tableRow;horizontal=0;startSize=0;swimlaneHead=0;swimlaneBody=0;top=0;left=0;bottom=0;right=0;collapsible=0;dropTarget=0;fillColor=none;points=[[0,0.5],[1,0.5]];portConstraint=eastwest;" vertex="1" parent="zZJDBr4B8ybU85FiS5dK-64">
          <mxGeometry y="370" width="1070" height="76" as="geometry" />
        </mxCell>
        <mxCell id="zZJDBr4B8ybU85FiS5dK-81" value="" style="shape=partialRectangle;html=1;whiteSpace=wrap;connectable=0;overflow=hidden;fillColor=none;top=0;left=0;bottom=0;right=0;pointerEvents=1;align=left;" vertex="1" parent="zZJDBr4B8ybU85FiS5dK-80">
          <mxGeometry width="189" height="76" as="geometry">
            <mxRectangle width="189" height="76" as="alternateBounds" />
          </mxGeometry>
        </mxCell>
        <mxCell id="zZJDBr4B8ybU85FiS5dK-82" value="active interruption" style="shape=partialRectangle;html=1;whiteSpace=wrap;connectable=0;overflow=hidden;fillColor=none;top=0;left=0;bottom=0;right=0;pointerEvents=1;align=left;" vertex="1" parent="zZJDBr4B8ybU85FiS5dK-80">
          <mxGeometry x="189" width="266" height="76" as="geometry">
            <mxRectangle width="266" height="76" as="alternateBounds" />
          </mxGeometry>
        </mxCell>
        <mxCell id="zZJDBr4B8ybU85FiS5dK-83" value="&#xa;&lt;div style=&quot;color: rgb(51, 51, 51); font-family: Consolas, &amp;quot;Courier New&amp;quot;, monospace; font-weight: normal; font-size: 10px; line-height: 19px;&quot;&gt;&lt;div style=&quot;font-size: 10px;&quot;&gt;&lt;span style=&quot;color: rgb(119, 119, 119); font-size: 10px;&quot;&gt;{&lt;/span&gt;&lt;/div&gt;&lt;div style=&quot;font-size: 10px;&quot;&gt;&lt;span style=&quot;color: rgb(51, 51, 51); font-size: 10px;&quot;&gt;&amp;nbsp; &amp;nbsp; &lt;/span&gt;&lt;span style=&quot;color: rgb(102, 0, 0); font-size: 10px;&quot;&gt;Аудио&lt;/span&gt;&lt;span style=&quot;color: rgb(51, 51, 51); font-size: 10px;&quot;&gt; &lt;/span&gt;&lt;span style=&quot;color: rgb(102, 0, 0); font-size: 10px;&quot;&gt;на&lt;/span&gt;&lt;span style=&quot;color: rgb(51, 51, 51); font-size: 10px;&quot;&gt; &lt;/span&gt;&lt;span style=&quot;color: rgb(102, 0, 0); font-size: 10px;&quot;&gt;перебивание&lt;/span&gt;&lt;span style=&quot;color: rgb(119, 119, 119); font-size: 10px;&quot;&gt;:&lt;/span&gt;&lt;span style=&quot;color: rgb(51, 51, 51); font-size: 10px;&quot;&gt; &lt;/span&gt;&lt;span style=&quot;color: rgb(102, 0, 0); font-size: 10px;&quot;&gt;string&lt;/span&gt;&lt;span style=&quot;color: rgb(119, 119, 119); font-size: 10px;&quot;&gt;,&lt;/span&gt;&lt;/div&gt;&lt;div style=&quot;font-size: 10px;&quot;&gt;&lt;span style=&quot;color: rgb(119, 119, 119); font-size: 10px;&quot;&gt;}&lt;/span&gt;&lt;/div&gt;&lt;/div&gt;&#xa;&#xa;" style="shape=partialRectangle;html=1;whiteSpace=wrap;connectable=0;overflow=hidden;fillColor=none;top=0;left=0;bottom=0;right=0;pointerEvents=1;align=left;fontSize=10;labelBackgroundColor=#FFFFFF;" vertex="1" parent="zZJDBr4B8ybU85FiS5dK-80">
          <mxGeometry x="455" width="455" height="76" as="geometry">
            <mxRectangle width="455" height="76" as="alternateBounds" />
          </mxGeometry>
        </mxCell>
        <mxCell id="zZJDBr4B8ybU85FiS5dK-84" value="" style="shape=partialRectangle;html=1;whiteSpace=wrap;connectable=0;overflow=hidden;fillColor=none;top=0;left=0;bottom=0;right=0;pointerEvents=1;" vertex="1" parent="zZJDBr4B8ybU85FiS5dK-80">
          <mxGeometry x="910" width="160" height="76" as="geometry">
            <mxRectangle width="160" height="76" as="alternateBounds" />
          </mxGeometry>
        </mxCell>
        <mxCell id="zZJDBr4B8ybU85FiS5dK-103" value="&lt;div style=&quot;color: rgb(51, 51, 51); background-color: rgb(245, 245, 245); font-family: Consolas, &amp;quot;Courier New&amp;quot;, monospace; font-size: 14px; line-height: 19px;&quot;&gt;&lt;div&gt;&lt;span style=&quot;color: #777777;&quot;&gt;{&lt;/span&gt;&lt;/div&gt;&lt;div&gt;&amp;nbsp; &amp;nbsp; &lt;span style=&quot;color: #777777;&quot;&gt;&quot;&lt;/span&gt;&lt;span style=&quot;color: #9c5d27;&quot;&gt;Таймаут перед началом разговора&lt;/span&gt;&lt;span style=&quot;color: #777777;&quot;&gt;&quot;&lt;/span&gt;&lt;span style=&quot;color: #777777;&quot;&gt;:&lt;/span&gt; &lt;span style=&quot;color: #660000;&quot;&gt;number&lt;/span&gt;&lt;span style=&quot;color: #777777;&quot;&gt;,&lt;/span&gt;&lt;/div&gt;&lt;div&gt;&amp;nbsp; &amp;nbsp; &lt;span style=&quot;color: #777777;&quot;&gt;&quot;&lt;/span&gt;&lt;span style=&quot;color: #9c5d27;&quot;&gt;Фоновый шум&lt;/span&gt;&lt;span style=&quot;color: #777777;&quot;&gt;&quot;&lt;/span&gt;&lt;span style=&quot;color: #777777;&quot;&gt;:&lt;/span&gt; &lt;span style=&quot;color: #660000;&quot;&gt;string&lt;/span&gt;&lt;/div&gt;&lt;div&gt;&lt;span style=&quot;color: #777777;&quot;&gt;}&lt;/span&gt;&lt;/div&gt;&lt;/div&gt;" style="text;html=1;strokeColor=none;fillColor=none;align=center;verticalAlign=middle;whiteSpace=wrap;rounded=0;fontSize=4;" vertex="1" parent="zZJDBr4B8ybU85FiS5dK-80">
          <mxGeometry x="1070" width="NaN" height="76" as="geometry">
            <mxRectangle width="NaN" height="76" as="alternateBounds" />
          </mxGeometry>
        </mxCell>
        <mxCell id="zZJDBr4B8ybU85FiS5dK-85" value="" style="shape=tableRow;horizontal=0;startSize=0;swimlaneHead=0;swimlaneBody=0;top=0;left=0;bottom=0;right=0;collapsible=0;dropTarget=0;fillColor=none;points=[[0,0.5],[1,0.5]];portConstraint=eastwest;" vertex="1" parent="zZJDBr4B8ybU85FiS5dK-64">
          <mxGeometry y="446" width="1070" height="77" as="geometry" />
        </mxCell>
        <mxCell id="zZJDBr4B8ybU85FiS5dK-86" value="" style="shape=partialRectangle;html=1;whiteSpace=wrap;connectable=0;overflow=hidden;fillColor=none;top=0;left=0;bottom=0;right=0;pointerEvents=1;align=left;" vertex="1" parent="zZJDBr4B8ybU85FiS5dK-85">
          <mxGeometry width="189" height="77" as="geometry">
            <mxRectangle width="189" height="77" as="alternateBounds" />
          </mxGeometry>
        </mxCell>
        <mxCell id="zZJDBr4B8ybU85FiS5dK-87" value="active standby" style="shape=partialRectangle;html=1;whiteSpace=wrap;connectable=0;overflow=hidden;fillColor=none;top=0;left=0;bottom=0;right=0;pointerEvents=1;align=left;" vertex="1" parent="zZJDBr4B8ybU85FiS5dK-85">
          <mxGeometry x="189" width="266" height="77" as="geometry">
            <mxRectangle width="266" height="77" as="alternateBounds" />
          </mxGeometry>
        </mxCell>
        <mxCell id="zZJDBr4B8ybU85FiS5dK-88" value="&lt;div style=&quot;color: rgb(51, 51, 51); font-family: Consolas, &amp;quot;Courier New&amp;quot;, monospace; font-size: 9px; line-height: 19px;&quot;&gt;&lt;div style=&quot;line-height: 19px; font-size: 9px;&quot;&gt;&lt;div style=&quot;font-size: 9px;&quot;&gt;&lt;span style=&quot;color: rgb(119, 119, 119); font-size: 9px;&quot;&gt;{&lt;/span&gt;&lt;/div&gt;&lt;div style=&quot;font-size: 9px;&quot;&gt;&amp;nbsp; &amp;nbsp; &lt;span style=&quot;color: rgb(102, 0, 0); font-size: 9px;&quot;&gt;Аудио&lt;/span&gt; &lt;span style=&quot;color: rgb(102, 0, 0); font-size: 9px;&quot;&gt;на&lt;/span&gt; &lt;span style=&quot;color: rgb(102, 0, 0); font-size: 9px;&quot;&gt;подтверждение&lt;/span&gt; &lt;span style=&quot;color: rgb(102, 0, 0); font-size: 9px;&quot;&gt;ожидания&lt;/span&gt; &lt;span style=&quot;color: rgb(119, 119, 119); font-size: 9px;&quot;&gt;:&lt;/span&gt; &lt;span style=&quot;color: rgb(102, 0, 0); font-size: 9px;&quot;&gt;string&lt;/span&gt;&lt;span style=&quot;color: rgb(119, 119, 119); font-size: 9px;&quot;&gt;,&lt;/span&gt;&lt;/div&gt;&lt;div style=&quot;font-size: 9px;&quot;&gt;&lt;span style=&quot;color: rgb(119, 119, 119); font-size: 9px;&quot;&gt;}&lt;/span&gt;&lt;/div&gt;&lt;/div&gt;&lt;/div&gt;" style="shape=partialRectangle;html=1;whiteSpace=wrap;connectable=0;overflow=hidden;fillColor=none;top=0;left=0;bottom=0;right=0;pointerEvents=1;align=left;fontSize=9;labelBackgroundColor=#FFFFFF;" vertex="1" parent="zZJDBr4B8ybU85FiS5dK-85">
          <mxGeometry x="455" width="455" height="77" as="geometry">
            <mxRectangle width="455" height="77" as="alternateBounds" />
          </mxGeometry>
        </mxCell>
        <mxCell id="zZJDBr4B8ybU85FiS5dK-89" value="" style="shape=partialRectangle;html=1;whiteSpace=wrap;connectable=0;overflow=hidden;fillColor=none;top=0;left=0;bottom=0;right=0;pointerEvents=1;" vertex="1" parent="zZJDBr4B8ybU85FiS5dK-85">
          <mxGeometry x="910" width="160" height="77" as="geometry">
            <mxRectangle width="160" height="77" as="alternateBounds" />
          </mxGeometry>
        </mxCell>
        <mxCell id="zZJDBr4B8ybU85FiS5dK-90" value="" style="shape=tableRow;horizontal=0;startSize=0;swimlaneHead=0;swimlaneBody=0;top=0;left=0;bottom=0;right=0;collapsible=0;dropTarget=0;fillColor=none;points=[[0,0.5],[1,0.5]];portConstraint=eastwest;" vertex="1" parent="zZJDBr4B8ybU85FiS5dK-64">
          <mxGeometry y="523" width="1070" height="76" as="geometry" />
        </mxCell>
        <mxCell id="zZJDBr4B8ybU85FiS5dK-91" value="" style="shape=partialRectangle;html=1;whiteSpace=wrap;connectable=0;overflow=hidden;fillColor=none;top=0;left=0;bottom=0;right=0;pointerEvents=1;align=left;" vertex="1" parent="zZJDBr4B8ybU85FiS5dK-90">
          <mxGeometry width="189" height="76" as="geometry">
            <mxRectangle width="189" height="76" as="alternateBounds" />
          </mxGeometry>
        </mxCell>
        <mxCell id="zZJDBr4B8ybU85FiS5dK-92" value="transfer to operator" style="shape=partialRectangle;html=1;whiteSpace=wrap;connectable=0;overflow=hidden;fillColor=none;top=0;left=0;bottom=0;right=0;pointerEvents=1;align=left;fontColor=#a72f2f;" vertex="1" parent="zZJDBr4B8ybU85FiS5dK-90">
          <mxGeometry x="189" width="266" height="76" as="geometry">
            <mxRectangle width="266" height="76" as="alternateBounds" />
          </mxGeometry>
        </mxCell>
        <mxCell id="zZJDBr4B8ybU85FiS5dK-93" value="&lt;div style=&quot;border-color: var(--border-color); font-family: Consolas, &amp;quot;Courier New&amp;quot;, monospace; font-size: 9px; background-color: rgb(255, 255, 255); line-height: 150%;&quot;&gt;&lt;span style=&quot;border-color: var(--border-color);&quot;&gt;{&lt;/span&gt;&lt;/div&gt;&lt;div style=&quot;border-color: var(--border-color); font-family: Consolas, &amp;quot;Courier New&amp;quot;, monospace; font-size: 9px; background-color: rgb(255, 255, 255); line-height: 150%;&quot;&gt;&lt;span style=&quot;&quot;&gt;&amp;nbsp; &amp;nbsp;&amp;nbsp;&lt;span style=&quot;border-color: var(--border-color);&quot;&gt;Аудио&lt;/span&gt;&amp;nbsp;&lt;span style=&quot;border-color: var(--border-color);&quot;&gt;на&lt;/span&gt;&amp;nbsp;&lt;span style=&quot;border-color: var(--border-color);&quot;&gt;подтверждение&lt;/span&gt;&amp;nbsp;&lt;/span&gt;&lt;font&gt;перевода на оператора&lt;/font&gt;&lt;span style=&quot;border-color: var(--border-color);&quot;&gt;:&lt;/span&gt;&lt;font&gt;&amp;nbsp;&lt;/font&gt;&lt;span style=&quot;border-color: var(--border-color);&quot;&gt;string&lt;/span&gt;&lt;span style=&quot;border-color: var(--border-color);&quot;&gt;,&lt;/span&gt;&lt;/div&gt;&lt;div style=&quot;border-color: var(--border-color); font-family: Consolas, &amp;quot;Courier New&amp;quot;, monospace; font-size: 9px; background-color: rgb(255, 255, 255); line-height: 150%;&quot;&gt;&lt;span style=&quot;border-color: var(--border-color);&quot;&gt;}&lt;/span&gt;&lt;/div&gt;" style="shape=partialRectangle;html=1;whiteSpace=wrap;connectable=0;overflow=hidden;fillColor=none;top=0;left=0;bottom=0;right=0;pointerEvents=1;align=left;fontColor=#a72f2f;" vertex="1" parent="zZJDBr4B8ybU85FiS5dK-90">
          <mxGeometry x="455" width="455" height="76" as="geometry">
            <mxRectangle width="455" height="76" as="alternateBounds" />
          </mxGeometry>
        </mxCell>
        <mxCell id="zZJDBr4B8ybU85FiS5dK-94" value="" style="shape=partialRectangle;html=1;whiteSpace=wrap;connectable=0;overflow=hidden;fillColor=none;top=0;left=0;bottom=0;right=0;pointerEvents=1;" vertex="1" parent="zZJDBr4B8ybU85FiS5dK-90">
          <mxGeometry x="910" width="160" height="76" as="geometry">
            <mxRectangle width="160" height="76" as="alternateBounds" />
          </mxGeometry>
        </mxCell>
        <mxCell id="zZJDBr4B8ybU85FiS5dK-130" style="shape=tableRow;horizontal=0;startSize=0;swimlaneHead=0;swimlaneBody=0;top=0;left=0;bottom=0;right=0;collapsible=0;dropTarget=0;fillColor=none;points=[[0,0.5],[1,0.5]];portConstraint=eastwest;" vertex="1" parent="zZJDBr4B8ybU85FiS5dK-64">
          <mxGeometry y="599" width="1070" height="76" as="geometry" />
        </mxCell>
        <mxCell id="zZJDBr4B8ybU85FiS5dK-131" style="shape=partialRectangle;html=1;whiteSpace=wrap;connectable=0;overflow=hidden;fillColor=none;top=0;left=0;bottom=0;right=0;pointerEvents=1;align=left;" vertex="1" parent="zZJDBr4B8ybU85FiS5dK-130">
          <mxGeometry width="189" height="76" as="geometry">
            <mxRectangle width="189" height="76" as="alternateBounds" />
          </mxGeometry>
        </mxCell>
        <mxCell id="zZJDBr4B8ybU85FiS5dK-132" value="&#xa;&lt;span style=&quot;color: rgb(0, 0, 0); font-family: Helvetica; font-size: 12px; font-style: normal; font-variant-ligatures: normal; font-variant-caps: normal; font-weight: 400; letter-spacing: normal; orphans: 2; text-align: left; text-indent: 0px; text-transform: none; widows: 2; word-spacing: 0px; -webkit-text-stroke-width: 0px; background-color: rgb(251, 251, 251); text-decoration-thickness: initial; text-decoration-style: initial; text-decoration-color: initial; float: none; display: inline !important;&quot;&gt;end call&lt;/span&gt;&#xa;&#xa;" style="shape=partialRectangle;html=1;whiteSpace=wrap;connectable=0;overflow=hidden;fillColor=none;top=0;left=0;bottom=0;right=0;pointerEvents=1;align=left;" vertex="1" parent="zZJDBr4B8ybU85FiS5dK-130">
          <mxGeometry x="189" width="266" height="76" as="geometry">
            <mxRectangle width="266" height="76" as="alternateBounds" />
          </mxGeometry>
        </mxCell>
        <mxCell id="zZJDBr4B8ybU85FiS5dK-133" value="&lt;br style=&quot;border-color: var(--border-color);&quot;&gt;&lt;span style=&quot;border-color: var(--border-color); text-align: left;&quot;&gt;end call&lt;/span&gt;" style="shape=partialRectangle;html=1;whiteSpace=wrap;connectable=0;overflow=hidden;fillColor=none;top=0;left=0;bottom=0;right=0;pointerEvents=1;" vertex="1" parent="zZJDBr4B8ybU85FiS5dK-130">
          <mxGeometry x="455" width="455" height="76" as="geometry">
            <mxRectangle width="455" height="76" as="alternateBounds" />
          </mxGeometry>
        </mxCell>
        <mxCell id="zZJDBr4B8ybU85FiS5dK-134" style="shape=partialRectangle;html=1;whiteSpace=wrap;connectable=0;overflow=hidden;fillColor=none;top=0;left=0;bottom=0;right=0;pointerEvents=1;" vertex="1" parent="zZJDBr4B8ybU85FiS5dK-130">
          <mxGeometry x="910" width="160" height="76" as="geometry">
            <mxRectangle width="160" height="76" as="alternateBounds" />
          </mxGeometry>
        </mxCell>
        <mxCell id="zZJDBr4B8ybU85FiS5dK-95" value="" style="shape=tableRow;horizontal=0;startSize=0;swimlaneHead=0;swimlaneBody=0;top=0;left=0;bottom=0;right=0;collapsible=0;dropTarget=0;fillColor=none;points=[[0,0.5],[1,0.5]];portConstraint=eastwest;" vertex="1" parent="zZJDBr4B8ybU85FiS5dK-64">
          <mxGeometry y="675" width="1070" height="71" as="geometry" />
        </mxCell>
        <mxCell id="zZJDBr4B8ybU85FiS5dK-96" value="end call" style="shape=partialRectangle;html=1;whiteSpace=wrap;connectable=0;overflow=hidden;fillColor=none;top=0;left=0;bottom=0;right=0;pointerEvents=1;align=left;" vertex="1" parent="zZJDBr4B8ybU85FiS5dK-95">
          <mxGeometry width="189" height="71" as="geometry">
            <mxRectangle width="189" height="71" as="alternateBounds" />
          </mxGeometry>
        </mxCell>
        <mxCell id="zZJDBr4B8ybU85FiS5dK-97" value="end call" style="shape=partialRectangle;html=1;whiteSpace=wrap;connectable=0;overflow=hidden;fillColor=none;top=0;left=0;bottom=0;right=0;pointerEvents=1;align=left;" vertex="1" parent="zZJDBr4B8ybU85FiS5dK-95">
          <mxGeometry x="189" width="266" height="71" as="geometry">
            <mxRectangle width="266" height="71" as="alternateBounds" />
          </mxGeometry>
        </mxCell>
        <mxCell id="zZJDBr4B8ybU85FiS5dK-98" value="" style="shape=partialRectangle;html=1;whiteSpace=wrap;connectable=0;overflow=hidden;fillColor=none;top=0;left=0;bottom=0;right=0;pointerEvents=1;" vertex="1" parent="zZJDBr4B8ybU85FiS5dK-95">
          <mxGeometry x="455" width="455" height="71" as="geometry">
            <mxRectangle width="455" height="71" as="alternateBounds" />
          </mxGeometry>
        </mxCell>
        <mxCell id="zZJDBr4B8ybU85FiS5dK-99" value="" style="shape=partialRectangle;html=1;whiteSpace=wrap;connectable=0;overflow=hidden;fillColor=none;top=0;left=0;bottom=0;right=0;pointerEvents=1;" vertex="1" parent="zZJDBr4B8ybU85FiS5dK-95">
          <mxGeometry x="910" width="160" height="71" as="geometry">
            <mxRectangle width="160" height="71" as="alternateBounds" />
          </mxGeometry>
        </mxCell>
        <mxCell id="zZJDBr4B8ybU85FiS5dK-101" value="&lt;div style=&quot;color: rgb(51, 51, 51); background-color: rgb(245, 245, 245); font-family: Consolas, &amp;quot;Courier New&amp;quot;, monospace; font-weight: normal; font-size: 14px; line-height: 19px;&quot;&gt;&lt;br&gt;&lt;/div&gt;" style="text;whiteSpace=wrap;html=1;fontSize=4;" vertex="1" parent="1">
          <mxGeometry x="390" y="480" width="390" height="100" as="geometry" />
        </mxCell>
        <mxCell id="zZJDBr4B8ybU85FiS5dK-104" value="" style="edgeStyle=orthogonalEdgeStyle;rounded=0;orthogonalLoop=1;jettySize=auto;html=1;fontSize=4;" edge="1" parent="1" source="zZJDBr4B8ybU85FiS5dK-102" target="zZJDBr4B8ybU85FiS5dK-103">
          <mxGeometry relative="1" as="geometry" />
        </mxCell>
        <mxCell id="zZJDBr4B8ybU85FiS5dK-102" value="&lt;div style=&quot;color: rgb(51, 51, 51); background-color: rgb(245, 245, 245); font-family: Consolas, &amp;quot;Courier New&amp;quot;, monospace; line-height: 165%;&quot;&gt;&lt;div style=&quot;line-height: 165%; font-size: 11px;&quot;&gt;&lt;div style=&quot;line-height: 103%;&quot;&gt;&lt;div style=&quot;line-height: 103%;&quot;&gt;&lt;br&gt;&lt;/div&gt;&lt;/div&gt;&lt;/div&gt;&lt;/div&gt;" style="text;html=1;strokeColor=none;fillColor=none;align=left;verticalAlign=middle;whiteSpace=wrap;rounded=0;fontSize=4;" vertex="1" parent="1">
          <mxGeometry x="370" y="120" width="480" height="50" as="geometry" />
        </mxCell>
        <mxCell id="zZJDBr4B8ybU85FiS5dK-108" value="" style="endArrow=classic;html=1;rounded=0;fontSize=9;entryX=0.75;entryY=0;entryDx=0;entryDy=0;" edge="1" parent="1" target="zZJDBr4B8ybU85FiS5dK-36">
          <mxGeometry relative="1" as="geometry">
            <mxPoint x="125" y="250" as="sourcePoint" />
            <mxPoint x="115" y="310" as="targetPoint" />
          </mxGeometry>
        </mxCell>
        <mxCell id="zZJDBr4B8ybU85FiS5dK-109" value="тип запроса" style="edgeLabel;resizable=0;html=1;align=center;verticalAlign=middle;labelBackgroundColor=#FFFFFF;fontSize=9;" connectable="0" vertex="1" parent="zZJDBr4B8ybU85FiS5dK-108">
          <mxGeometry relative="1" as="geometry" />
        </mxCell>
        <mxCell id="zZJDBr4B8ybU85FiS5dK-122" value="" style="endArrow=classic;html=1;rounded=0;fontSize=9;entryX=0.25;entryY=1;entryDx=0;entryDy=0;" edge="1" parent="1" target="zZJDBr4B8ybU85FiS5dK-34">
          <mxGeometry relative="1" as="geometry">
            <mxPoint x="65" y="320" as="sourcePoint" />
            <mxPoint x="230" y="300" as="targetPoint" />
          </mxGeometry>
        </mxCell>
        <mxCell id="zZJDBr4B8ybU85FiS5dK-123" value="тип ответа" style="edgeLabel;resizable=0;html=1;align=center;verticalAlign=middle;labelBackgroundColor=#FFFFFF;fontSize=9;" connectable="0" vertex="1" parent="zZJDBr4B8ybU85FiS5dK-122">
          <mxGeometry relative="1" as="geometry" />
        </mxCell>
      </root>
    </mxGraphModel>
  </diagram>
</mxfile>
